0.06m3min_grf.mot
version=1
nRows=15
nColumns 19
inDegrees=yes
endheader
time	1_ground_force_vx	1_ground_force_vy	1_ground_force_vz	1_ground_force_px	1_ground_force_py	1_ground_force_pz	1_ground_torque_x	1_ground_torque_y	1_ground_torque_z	2_ground_force_vx	2_ground_force_vy	2_ground_force_vz	2_ground_force_px	2_ground_force_py	2_ground_force_pz	2_ground_torque_x	2_ground_torque_y	2_ground_torque_z
            1.253500	           -9.163200	          456.233994	          -36.174224	           -0.238881	            0.006104	           -0.377929	           -0.000996	            0.049606	           -0.003933	           11.373312	          539.478260	           36.787105	           -0.264956	            0.005447	           -0.675363	           -0.040544	           -1.923130	           -0.131139
            1.254000	           -8.931416	          449.021249	          -35.701300	           -0.238760	            0.006105	           -0.377969	            0.001182	           -0.059400	            0.004723	           11.488944	          533.401773	           36.765382	           -0.264653	            0.005449	           -0.675534	           -0.041669	           -1.934563	           -0.133342
            1.254500	           -8.607410	          441.987835	          -34.998547	           -0.238837	            0.006106	           -0.378320	            0.003350	           -0.171996	            0.013619	           11.704799	          525.484976	           36.455480	           -0.264853	            0.005447	           -0.675048	           -0.043007	           -1.930781	           -0.133948
            1.255000	           -8.467984	          436.578318	          -34.655230	           -0.238683	            0.006106	           -0.378219	            0.004036	           -0.208066	            0.016516	           11.535118	          520.514159	           35.921610	           -0.264487	            0.005450	           -0.675587	           -0.041320	           -1.864524	           -0.128674
            1.255500	           -8.237182	          432.250610	          -34.353355	           -0.238774	            0.006103	           -0.377558	            0.001531	           -0.080362	            0.006387	           11.703437	          512.781685	           35.565457	           -0.264679	            0.005448	           -0.675329	           -0.042186	           -1.848344	           -0.128197
            1.256000	           -7.958807	          424.676163	          -33.606955	           -0.238696	            0.006105	           -0.377944	            0.000023	           -0.001220	            0.000097	           12.148931	          506.154506	           35.353911	           -0.264642	            0.005449	           -0.675344	           -0.046920	           -1.954792	           -0.136538
            1.256500	           -7.727122	          418.004184	          -33.131705	           -0.238575	            0.006106	           -0.378283	           -0.000322	            0.017445	           -0.001383	           12.545456	          500.080646	           34.862788	           -0.264322	            0.005451	           -0.675640	           -0.048590	           -1.936858	           -0.135027
            1.257000	           -7.541316	          412.773989	          -32.558453	           -0.238322	            0.006106	           -0.378369	            0.001354	           -0.074106	            0.005845	           12.333640	          493.820051	           34.465123	           -0.264235	            0.005451	           -0.675537	           -0.047823	           -1.914773	           -0.133638
            1.257500	           -7.355231	          406.642239	          -31.943206	           -0.238312	            0.006105	           -0.378077	            0.003800	           -0.210074	            0.016502	           12.545363	          487.009453	           33.830667	           -0.264183	            0.005451	           -0.675526	           -0.049059	           -1.904449	           -0.132295
            1.258000	           -7.169799	          401.592870	          -31.506745	           -0.238501	            0.006105	           -0.378031	            0.004261	           -0.238645	            0.018723	           12.382451	          480.196103	           33.571795	           -0.264164	            0.005451	           -0.675472	           -0.048887	           -1.895844	           -0.132544
            1.258500	           -6.709355	          394.921722	          -31.215487	           -0.238299	            0.006105	           -0.378126	            0.003876	           -0.228172	            0.018035	           12.500016	          473.567634	           33.407316	           -0.264226	            0.005451	           -0.675514	           -0.047107	           -1.784670	           -0.125898
            1.259000	           -6.386604	          389.151906	          -30.920031	           -0.238305	            0.006105	           -0.378089	            0.001294	           -0.078852	            0.006265	           12.429454	          467.123070	           33.102790	           -0.263819	            0.005452	           -0.675505	           -0.047522	           -1.785979	           -0.126564
            1.259500	           -6.154955	          383.921720	          -30.346885	           -0.238042	            0.006104	           -0.377892	            0.000530	           -0.033047	            0.002612	           12.734398	          460.495446	           32.891304	           -0.263893	            0.005451	           -0.675358	           -0.051100	           -1.847865	           -0.131985
            1.260000	           -6.152616	          377.970760	          -29.867978	           -0.237925	            0.006105	           -0.377930	            0.001092	           -0.067087	            0.005301	           12.567272	          454.788841	           32.120166	           -0.263971	            0.005453	           -0.675928	           -0.049428	           -1.788728	           -0.126332
            1.260500	           -5.875888	          372.561663	          -29.616714	           -0.238165	            0.006105	           -0.377917	            0.001300	           -0.082437	            0.006553	           13.013471	          447.977187	           32.001819	           -0.263692	            0.005452	           -0.675464	           -0.052110	           -1.793846	           -0.128146
